:SAMPLES-PER-SECOND 30
:FULLY-SPECIFIED
:DEGREES
124
root  -32.2007 40.246 -4.74794 174.994 -35.9482 173.636
RightUpLeg  -20.1002 -5.07675 -7.2856
RightLeg  38.4679 -3.19342 -2.97107
RightFoot  3.37826 -0.686639 5.48657
RightToes  5.82063e-011 0 -3.6325e-017
Spine  8.66682 -1.63567 -4.00979
Spine1  8.61115 -2.21721 -0.376423
HEad  -9.12981 4.83405 -4.22041
LeftShoulder1  7.47509 -10.7703 -45.6463
LeftArm  -16.8275 3.19367 -23.3887
LeftForeArm  28.6806 -37.6071 -6.86486
LeftHand  -0.244104 0.0205437 5.32207
RightShoulder  6.0883 9.48316 40.7017
RightArm  8.54982 -19.9976 32.0412
RightForeArm  8.18524 16.1885 6.58406
RightHand  -0.782093 1.42564 -13.4486
LeftUpLeg  5.4973 5.9933 -5.80841
LeftLeg  13.9397 12.3517 -2.03477
LeftFoot  -11.4688 0.0733471 4.16944
LeftToes  1.2005e-010 6.1915e-012 3.32694e-011
125
root  -33.0124 40.0767 -5.78974 175.599 -36.8663 172.848
RightUpLeg  -19.8662 -7.34953 -7.22659
RightLeg  26.8872 -2.92825 -1.93447
RightFoot  3.43272 -0.677319 5.4023
RightToes  5.82063e-011 0 -3.6325e-017
Spine  8.10101 -1.81987 -5.76407
Spine1  8.88112 -2.7594 0.812403
HEad  -8.90479 4.24164 -3.64181
LeftShoulder1  7.36332 -10.6816 -45.2292
LeftArm  -18.1416 0.478338 -22.5036
LeftForeArm  29.8899 -40.0464 -7.49518
LeftHand  -0.244104 0.0205437 5.32207
RightShoulder  5.90948 9.24806 40.194
RightArm  5.98308 -22.1537 31.6393
RightForeArm  8.69065 15.5242 6.64045
RightHand  -0.761134 1.19221 -13.5279
LeftUpLeg  7.29955 5.79369 -6.41085
LeftLeg  14.5445 11.6133 -1.97339
LeftFoot  -13.4404 0.152893 3.9264
LeftToes  1.2005e-010 6.1915e-012 3.32694e-011
126
root  -33.8248 39.9352 -6.86056 176.39 -37.6212 171.978
RightUpLeg  -18.9007 -9.39937 -7.24025
RightLeg  14.2991 -2.17462 -0.390847
RightFoot  3.70257 -0.665923 5.22505
RightToes  5.82063e-011 0 -3.6325e-017
Spine  7.26878 -1.90087 -7.07124
Spine1  9.23349 -3.04939 1.86096
HEad  -8.41016 3.46529 -2.98692
LeftShoulder1  7.23806 -10.5705 -44.7931
LeftArm  -18.4449 -2.08357 -21.8564
LeftForeArm  30.2526 -41.1872 -7.82081
LeftHand  -0.244104 0.0205437 5.32207
RightShoulder  5.85846 9.18037 40.0466
RightArm  0.938016 -23.5782 31.1888
RightForeArm  11.3969 12.5985 7.08031
RightHand  -0.664419 0.551378 -13.0574
LeftUpLeg  9.47031 5.80047 -6.90268
LeftLeg  14.2203 10.8007 -2.19304
LeftFoot  -14.8449 0.205881 3.79553
LeftToes  1.2005e-010 6.1915e-012 3.32694e-011
127
root  -34.667 39.7444 -7.9732 176.949 -38.4942 171.362
RightUpLeg  -17.0685 -8.91119 -8.35647
RightLeg  2.3375 -3.57719 2.10812
RightFoot  3.35087 -0.777718 6.22732
RightToes  5.82063e-011 0 -3.6325e-017
Spine  6.4151 -2.08288 -7.5075
Spine1  9.56207 -3.22543 2.18803
HEad  -7.76068 2.56846 -2.42291
LeftShoulder1  7.1868 -10.555 -44.513
LeftArm  -17.9118 -4.27795 -21.229
LeftForeArm  29.9518 -41.3549 -7.89331
LeftHand  -0.244104 0.0205437 5.32207
RightShoulder  5.89494 9.19822 40.2567
RightArm  -4.27685 -24.2977 30.7902
RightForeArm  15.1802 8.46482 6.88135
RightHand  -0.588813 0.019676 -12.6789
LeftUpLeg  11.8928 6.02382 -6.98494
LeftLeg  13.925 9.6848 -2.44676
LeftFoot  -16.4251 0.258831 3.62164
LeftToes  1.2005e-010 6.1915e-012 3.32694e-011
128
root  -35.5611 39.4304 -9.19237 177.3 -39.3801 170.853
RightUpLeg  -15.8086 -8.76572 -9.16106
RightLeg  -4.48924 -4.9166 4.02085
RightFoot  1.4067 -0.867767 7.82547
RightToes  5.82063e-011 0 -3.6325e-017
Spine  5.33582 -2.27764 -7.59179
Spine1  9.99435 -3.28678 1.97783
HEad  -7.24337 1.6317 -2.19102
LeftShoulder1  7.21686 -10.6355 -44.4422
LeftArm  -17.0778 -5.94101 -20.7735
LeftForeArm  29.5948 -40.7827 -7.74
LeftHand  -0.244104 0.0205437 5.32207
RightShoulder  5.96087 9.23433 40.6212
RightArm  -7.16673 -24.5183 30.5124
RightForeArm  17.2873 4.8098 5.83467
RightHand  -0.520763 -0.51065 -12.3851
LeftUpLeg  14.2658 6.5404 -6.6866
LeftLeg  14.5983 8.14027 -2.523
LeftFoot  -18.7612 0.288612 2.74036
LeftToes  1.2005e-010 6.1915e-012 3.32694e-011
129
root  -36.4449 39.1618 -10.4545 177.607 -39.963 170.695
RightUpLeg  -16.0423 -9.01829 -8.90338
RightLeg  -4.3666 -6.7505 4.60262
RightFoot  -0.00406959 -0.728699 7.34027
RightToes  5.82063e-011 0 -3.6325e-017
Spine  3.9839 -2.32956 -7.43246
Spine1  10.7841 -3.34268 2.16781
HEad  -6.87034 0.94351 -2.29494
LeftShoulder1  7.23276 -10.6771 -44.4083
LeftArm  -16.1527 -6.62878 -20.8447
LeftForeArm  29.3204 -39.7166 -7.43583
LeftHand  -0.244104 0.0205437 5.32207
RightShoulder  6.02059 9.28197 40.8971
RightArm  -9.00064 -24.637 30.1656
RightForeArm  18.1351 2.64527 4.98778
RightHand  -0.439436 -1.17615 -12.034
LeftUpLeg  16.5933 7.5032 -5.83228
LeftLeg  14.9741 6.12516 -2.52392
LeftFoot  -20.4267 0.222247 1.23774
LeftToes  1.2005e-010 6.1915e-012 3.32694e-011
130
root  -37.32 39.0234 -11.7277 177.513 -40.3654 171.408
RightUpLeg  -16.3356 -8.68116 -7.82286
RightLeg  -1.69758 -9.37801 4.38354
RightFoot  3.17654 -0.416753 3.57771
RightToes  5.82063e-011 0 -3.6325e-017
Spine  2.60651 -2.44219 -6.43953
Spine1  11.6645 -3.58181 2.69548
HEad  -6.45108 0.786524 -2.58321
LeftShoulder1  7.22973 -10.6486 -44.4823
LeftArm  -14.9703 -5.88765 -21.2845
LeftForeArm  28.7246 -38.3724 -7.08144
LeftHand  -0.244104 0.0205437 5.32207
RightShoulder  6.02808 9.27723 40.9686
RightArm  -9.81556 -24.8071 29.7452
RightForeArm  17.6087 2.37563 4.70626
RightHand  -0.406573 -1.46038 -11.8987
LeftUpLeg  18.8745 8.91802 -4.1324
LeftLeg  14.9693 3.73193 -2.18001
LeftFoot  -20.6588 0.112084 -0.148662
LeftToes  1.2005e-010 6.1915e-012 3.32694e-011
131
root  -38.2617 38.9352 -13.0467 176.51 -40.5949 173.25
RightUpLeg  -17.404 -8.7671 -6.01108
RightLeg  3.48886 -9.9483 3.59474
RightFoot  8.55976 0.21232 -0.88461
RightToes  5.82063e-011 0 -3.6325e-017
Spine  1.35291 -2.8062 -3.93421
Spine1  12.1836 -3.85938 2.44466
HEad  -5.93711 1.13463 -3.05192
LeftShoulder1  7.32812 -10.6571 -45.0846
LeftArm  -13.431 -3.75592 -21.5699
LeftForeArm  27.7001 -36.6141 -6.654
LeftHand  -0.244104 0.0205437 5.32207
RightShoulder  5.94298 9.14215 40.8088
RightArm  -9.80994 -24.6912 29.4248
RightForeArm  16.4557 3.47902 4.89001
RightHand  -0.452497 -1.02045 -11.9705
LeftUpLeg  21.043 10.4892 -1.48249
LeftLeg  15.7618 1.38201 -1.33108
LeftFoot  -20.2772 -0.0239797 -1.83695
LeftToes  1.2005e-010 6.1915e-012 3.32694e-011
132
root  -39.2546 38.9171 -14.3721 174.637 -39.9489 176.12
RightUpLeg  -18.3861 -10.6504 -2.76015
RightLeg  8.65034 -6.39753 2.66814
RightFoot  12.2948 0.866025 -3.76692
RightToes  5.82063e-011 0 -3.6325e-017
Spine  0.362895 -3.01236 0.18439
Spine1  12.3642 -3.80263 1.47169
HEad  -5.3721 1.76463 -3.72284
LeftShoulder1  7.52686 -10.6951 -46.2228
LeftArm  -11.4764 -0.672267 -21.844
LeftForeArm  26.4466 -33.9139 -6.01879
LeftHand  -0.244104 0.0205437 5.32207
RightShoulder  5.81257 8.96936 40.437
RightArm  -9.55425 -23.9058 29.3494
RightForeArm  15.4964 5.09569 5.2286
RightHand  -0.497874 -0.485733 -11.7842
LeftUpLeg  22.7679 12.0049 1.98427
LeftLeg  17.7461 -0.307546 -0.396957
LeftFoot  -19.16 -0.249235 -5.39265
LeftToes  1.2005e-010 6.1915e-012 3.32694e-011
133
root  -40.1653 38.9906 -15.6657 173.118 -38.5177 178.768
RightUpLeg  -18.9222 -12.7883 0.955961
RightLeg  12.9149 -1.9617 1.75823
RightFoot  12.0098 1.27218 -5.77056
RightToes  5.82063e-011 0 -3.6325e-017
Spine  -0.325441 -2.85623 3.74439
Spine1  12.1742 -3.51081 1.15056
HEad  -4.73772 2.52454 -4.29114
LeftShoulder1  7.64258 -10.6276 -47.1798
LeftArm  -8.69699 2.9345 -22.974
LeftForeArm  24.4371 -29.8128 -5.1065
LeftHand  -0.244104 0.0205437 5.32207
RightShoulder  5.73531 8.94084 39.9514
RightArm  -9.31666 -22.4911 29.4872
RightForeArm  14.5787 6.88296 5.57658
RightHand  -0.483329 -0.487632 -11.4486
LeftUpLeg  22.5551 12.8574 5.12027
LeftLeg  22.1823 -0.496933 0.19082
LeftFoot  -15.4301 -0.256539 -10.2124
LeftToes  1.2005e-010 6.1915e-012 3.32694e-011
134
root  -40.9094 39.107 -16.8766 172.492 -37.7186 -179.36
RightUpLeg  -18.7846 -13.3804 3.38827
RightLeg  15.8727 -0.502872 1.1535
RightFoot  9.27949 1.45992 -7.66088
RightToes  5.82063e-011 0 -3.6325e-017
Spine  -0.489929 -2.7852 5.25653
Spine1  11.4435 -3.59154 2.3844
HEad  -4.2315 3.22146 -4.30067
LeftShoulder1  7.62473 -10.505 -47.4851
LeftArm  -4.84823 6.54122 -25.224
LeftForeArm  21.0573 -24.3094 -4.24949
LeftHand  -0.244104 0.0205437 5.32207
RightShoulder  5.71195 9.03435 39.4476
RightArm  -8.74679 -20.7594 29.8651
RightForeArm  12.8273 9.23827 5.9391
RightHand  -0.486281 -0.551943 -11.6603
LeftUpLeg  18.7687 12.3003 7.03731
LeftLeg  30.5841 0.956934 0.986201
LeftFoot  -7.4135 0.462207 -12.7318
LeftToes  1.2005e-010 6.1915e-012 3.32694e-011
135
root  -41.5117 39.2023 -17.913 172.019 -38.5542 -177.556
RightUpLeg  -18.2759 -13.4906 4.50488
RightLeg  17.7879 -1.52721 1.17744
RightFoot  6.607 1.4609 -8.92618
RightToes  5.82063e-011 0 -3.6325e-017
Spine  0.100881 -3.20523 5.94379
Spine1  10.3729 -4.22336 4.33676
HEad  -4.4554 3.42227 -3.67887
LeftShoulder1  7.69561 -10.6 -47.606
LeftArm  -2.62967 9.30335 -27.561
LeftForeArm  19.7993 -17.6972 -4.76629
LeftHand  -0.244104 0.0205437 5.32207
RightShoulder  5.65493 9.05224 38.9522
RightArm  -6.88283 -18.8758 30.7132
RightForeArm  8.95532 12.685 6.05672
RightHand  -0.586991 0.0478631 -12.5627
LeftUpLeg  11.9642 10.2126 8.03876
LeftLeg  41.3998 2.55189 2.80984
LeftFoot  2.63378 1.3633 -11.3485
LeftToes  1.2005e-010 6.1915e-012 3.32694e-011
136
root  -42.0644 39.2879 -18.7802 171.259 -40.1455 -175.649
RightUpLeg  -17.4717 -13.6825 4.92202
RightLeg  19.0172 -3.25075 1.69641
RightFoot  4.61039 1.32359 -9.1866
RightToes  5.82063e-011 0 -3.6325e-017
Spine  1.13428 -3.69646 7.37583
Spine1  9.62846 -4.67869 5.40531
HEad  -5.84022 2.77524 -2.74234
LeftShoulder1  7.99914 -10.9997 -48.1288
LeftArm  -4.63501 10.6785 -28.9637
LeftForeArm  24.9591 -10.7812 -6.7241
LeftHand  -0.244104 0.0205437 5.32207
RightShoulder  5.55719 8.95449 38.5402
RightArm  -3.89487 -16.7582 31.9766
RightForeArm  3.11105 16.8996 5.65592
RightHand  -0.760294 1.09509 -13.7081
LeftUpLeg  4.45241 7.26296 8.49704
LeftLeg  51.5491 3.55157 5.23856
LeftFoot  8.53845 1.46991 -8.61945
LeftToes  1.2005e-010 6.1915e-012 3.32694e-011
137
root  -42.6375 39.4941 -19.6291 171.085 -40.7767 -174.979
RightUpLeg  -15.8122 -13.4843 4.58468
RightLeg  18.9763 -4.3365 2.30263
RightFoot  3.08181 1.16977 -9.05286
RightToes  5.82063e-011 0 -3.6325e-017
Spine  1.8356 -3.44298 8.72653
Spine1  9.50239 -4.18301 4.89324
HEad  -7.99987 1.50712 -1.74963
LeftShoulder1  8.36269 -11.4285 -48.8828
LeftArm  -4.6443 11.3448 -29.8951
LeftForeArm  30.389 -5.77249 -7.38183
LeftHand  -0.244104 0.0205437 5.32207
RightShoulder  5.52598 8.93203 38.3768
RightArm  -1.31143 -14.2914 33.0882
RightForeArm  -2.24052 20.7774 5.17783
RightHand  -0.920559 1.86916 -14.8486
LeftUpLeg  -1.90749 5.7396 8.13748
LeftLeg  58.6961 4.0124 7.61553
LeftFoot  8.23143 1.0475 -6.32261
LeftToes  1.2005e-010 6.1915e-012 3.32694e-011
138
root  -43.2043 39.7953 -20.4895 171.957 -40.0218 -175.807
RightUpLeg  -13.7565 -12.5452 3.71022
RightLeg  17.9396 -4.64735 2.82115
RightFoot  2.0104 1.08484 -9.12393
RightToes  5.82063e-011 0 -3.6325e-017
Spine  2.16251 -2.46283 9.32384
Spine1  9.66494 -2.86088 3.49841
HEad  -10.0879 0.283056 -0.839422
LeftShoulder1  8.56249 -11.6287 -49.3909
LeftArm  -3.75182 12.7402 -30.8259
LeftForeArm  34.3668 -3.99999 -7.40577
LeftHand  -0.244104 0.0205437 5.32207
RightShoulder  5.62246 9.10458 38.5268
RightArm  0.264767 -11.5249 33.6043
RightForeArm  -4.63228 23.6784 5.27447
RightHand  -1.00122 2.04212 -15.7627
LeftUpLeg  -7.04217 6.1714 6.97192
LeftLeg  62.086 4.27648 9.29259
LeftFoot  4.93256 0.661864 -4.84684
LeftToes  1.2005e-010 6.1915e-012 3.32694e-011
